<mxfile host="app.diagrams.net" modified="2024-04-02T03:11:24.144Z" agent="Mozilla/5.0 (Macintosh; Intel Mac OS X 10_15_7) AppleWebKit/537.36 (KHTML, like Gecko) Chrome/123.0.0.0 Safari/537.36" etag="04MLoZDt-B5ZLuYte2iK" version="24.2.1" type="github">
  <diagram name="Page-1" id="QQZ7oMPJG3sktDM2DqTc">
    <mxGraphModel dx="1234" dy="460" grid="1" gridSize="10" guides="1" tooltips="1" connect="1" arrows="1" fold="1" page="1" pageScale="1" pageWidth="827" pageHeight="1169" math="0" shadow="0">
      <root>
        <mxCell id="0" />
        <mxCell id="1" parent="0" />
        <mxCell id="Fq8yEs6QbxNPfp0RpjUt-1" value="" style="rounded=0;whiteSpace=wrap;html=1;" vertex="1" parent="1">
          <mxGeometry x="90" y="210" width="220" height="200" as="geometry" />
        </mxCell>
        <mxCell id="Fq8yEs6QbxNPfp0RpjUt-2" value="" style="image;aspect=fixed;html=1;points=[];align=center;fontSize=12;image=img/lib/azure2/databases/Azure_Database_PostgreSQL_Server_Group.svg;" vertex="1" parent="1">
          <mxGeometry x="125" y="225" width="150" height="170" as="geometry" />
        </mxCell>
      </root>
    </mxGraphModel>
  </diagram>
</mxfile>
